<svg version="1.1" xmlns="http://www.w3.org/2000/svg" xmlns:xlink="http://www.w3.org/1999/xlink"
    x="0px" y="0px" viewBox="0 0 164 200" style="enable-background:new 0 0 164 200;"
    xml:space="preserve">
    <g id="Layer_2">
        <path d="M89.4,25.6C89.6,13,100.8,2,113.9,2.2c14.3,0,25.4,10.5,25.2,23.8c0,12.8-11.6,23.6-25.4,23.5
		C100.5,49.1,89.2,38.1,89.4,25.6" />
    </g>
    <g id="Layer_3">
        <path d="M134.4,65.4c3.7,3.7,7.6,7.2,10.8,11.2c12.9,16.1,18.7,34.3,16.1,54.4c-3.3,26.3-17.4,46-41.7,58.5
		c-23.8,12.2-48.7,12.4-73,1.2c-21.8-10.1-36.1-26.7-42.1-48.9C-5.9,103.3,16.7,65.1,54.5,52c11.9-4.1,24.1-5.7,36.7-4.1
		c2,0.2,2.8,1,2.8,2.8c0,23.8,0,47.5-0.1,71.3c0,5.1-1.3,9.9-5.7,13.4c-5.9,4.5-12.5,4.2-18.7,1.2c-4-1.9-7.4-5.2-10.8-8.1
		c-1.9-1.7-3-1.8-4.9,0C46.9,134.8,40,141,32.9,147c-1.8,1.6-1.9,2.8-0.4,4.5c9.2,10.5,20.7,17.1,35.1,19.3
		c13.7,2.1,27.1,1.6,39.7-4.3c12.9-6,21.2-15.8,24.1-29.3c1.3-5.8,1.9-11.7,2-17.5c0.3-16.5,0.1-32.9,0.1-49.5
		c0-1.3,0.1-2.8,0.1-4.1C133.8,65.8,134.2,65.7,134.4,65.4" />
    </g>
</svg>